# xmcd
#
# Track frame offsets:
#	150
#	23357
#	44100
#	70825
#	87787
#	103050
#	121455
#	138507
#	150950
#	168635
#	190865
#	216430
#	243595
#	260047
#	275112
#	295512
#	314197
#
# Disc length: 4411 seconds
#
# Revision: 1
# Processed by: cddbd v1.4PL0 Copyright (c) Steve Scherf et al.
# Submitted via: audiograbber 1.81.03
#
DISCID=06113911
DTITLE=Various Artist - Too Hot For Me (JSP)
DYEAR=1997
DGENRE=Blues
TTITLE0=U.P. Wilson - You're One Woman
TTITLE1=Lonnie Shields - A Woman Is Dangerous
TTITLE2=The Butler Twins - I'm Talking About Love
TTITLE3=Charlile Sayles - Hip Guy
TTITLE4=Ike Cosse - Doggy Style
TTITLE5=Jimmy Morello - Hey Brother
TTITLE6=Kenny Parker - Too Hot For Me
TTITLE7=Willie Edwards - Everlastin' Tears
TTITLE8=Bob Kirkpatrick - Going Back To Texas
TTITLE9=T Bone Singleton - Light In A Dark Place
TTITLE10=Jordan Patterson - Funky Thang (Playing The Blues Like Never Before)
TTITLE11=Tré - One Eyed Man
TTITLE12=Johnny Rawls - Here We Go
TTITLE13=Andrew "Jr Boy" Jones - You're A Dog
TTITLE14=Joe Coronado - Fine As Wine
TTITLE15=The Griswalds - Aunt Nancey's Bull
TTITLE16=U.P. Wilson - Walk That Way
EXTD=
EXTT0=
EXTT1=
EXTT2=
EXTT3=
EXTT4=
EXTT5=
EXTT6=
EXTT7=
EXTT8=
EXTT9=
EXTT10=
EXTT11=
EXTT12=
EXTT13=
EXTT14=
EXTT15=
EXTT16=
PLAYORDER=
